<?xml version="1.0" encoding="UTF-8"?>
<svg id="a" data-name="Layer 1" xmlns="http://www.w3.org/2000/svg" width="100" height="100" viewBox="0 0 100 100">
  <defs>
    <style>
      .b {
        fill: #43ff94;
      }
    </style>
  </defs>
  <g id="dr">
    <rect x="57" y="57" width="42" height="42"/>
    <path d="M98,58v40H58V58h40m2-2H56v44h44V56h0Z"/>
    <path class="b" d="M96,60v36H60V60h36m2-2H58v40h40V58h0Z"/>
  </g>
  <g>
    <rect x="19" y="19" width="62" height="62"/>
    <path d="M80,20v60H20V20h60m2-2H18V82H82V18h0Z"/>
    <path class="b" d="M78,22v56H22V22h56m2-2H20v60h60V20h0Z"/>
  </g>
</svg>