<?xml version="1.0" encoding="UTF-8"?>
<svg id="a" data-name="Layer 1" xmlns="http://www.w3.org/2000/svg" width="100" height="100" viewBox="0 0 100 100">
  <defs>
    <style>
      .b {
        fill: #43ff94;
      }
    </style>
  </defs>

  <g id="ul">
    <rect x="1" y="1" width="42" height="42"/>
    <path d="M42,2V42H2V2H42m2-2H0V44H44V0h0Z"/>
    <path class="b" d="M40,4V40H4V4H40m2-2H2V42H42V2h0Z"/>
  </g>
  <g>
    <rect x="19" y="19" width="62" height="62"/>
    <path d="M80,20v60H20V20h60m2-2H18V82H82V18h0Z"/>
    <path class="b" d="M78,22v56H22V22h56m2-2H20v60h60V20h0Z"/>
  </g>
</svg>