<?xml version="1.0" encoding="utf-8"?>
<!-- Generator: Adobe Illustrator 27.0.0, SVG Export Plug-In . SVG Version: 6.00 Build 0)  -->
<svg version="1.1" id="Layer_1" xmlns="http://www.w3.org/2000/svg" xmlns:xlink="http://www.w3.org/1999/xlink" x="0px" y="0px"
	 viewBox="0 0 77 32.6" style="enable-background:new 0 0 77 32.6;" xml:space="preserve">
<style type="text/css">
	.st0{fill:#231F20;}
	.st1{fill:#43FF94;}
</style>
<g id="mail">
	<g id="Envelope">
		<rect x="30.3" y="0.9" class="st0" width="45.9" height="30.8"/>
		<path class="st1" d="M75.3,30.9H31.2v-29h44.1V30.9z M77,0h-1.8H31.1h-1.8v1.8v29v1.8h1.8h44.1H77v-1.7v-29V0z"/>
		<rect x="32.1" y="2.7" class="st1" width="42.3" height="27.3"/>
		<path class="st0" d="M73.5,29.1H33V3.6h40.5V29.1z M75.3,1.8H31.2v29h44.1V1.8z"/>
		<polygon class="st1" points="33.3,2.7 73.1,2.7 53.2,23.2 		"/>
		<path class="st0" d="M71,3.6L53.2,21.9L35.4,3.6H71z M75.3,1.8H31.2l22,22.7L75.3,1.8z"/>
	</g>
	<g id="BubbleDR">
		<rect x="16.1" y="20.4" class="st0" width="11.4" height="11.4"/>
		<path class="st1" d="M26.6,30.9H17v-9.6h9.6V30.9z M28.4,19.5h-1.8H17h-1.8v1.8v9.6v1.8H17h9.6h1.8v-1.8v-9.6V19.5z"/>
		<rect x="17.9" y="22.2" class="st1" width="7.8" height="7.8"/>
		<path class="st0" d="M24.9,29.1h-6v-6h6V29.1z M26.6,21.3H17v9.6h9.6V21.3z"/>
	</g>
	<g id="BubbleUR">
		<rect x="13.7" y="5.4" class="st0" width="11.2" height="11.2"/>
		<path class="st1" d="M24,15.7h-9.4V6.3H24V15.7z M25.8,4.5H24h-9.4h-1.8v1.8v9.4v1.8h1.8H24h1.8v-1.8V6.3V4.5z"/>
		<rect x="15.5" y="7.2" class="st1" width="7.6" height="7.6"/>
		<path class="st0" d="M22.2,13.9h-5.8V8.1h5.8V13.9z M24,6.3h-9.4v9.4H24V6.3z"/>
	</g>
	<g id="BubbleDL">
		<rect x="4.2" y="18.9" class="st0" width="8.6" height="8.6"/>
		<path class="st1" d="M11.9,26.6H5v-6.9h6.9V26.6z M13.7,18h-1.8H5H3.2v1.8v6.9v1.8H5h6.9h1.8v-1.8v-6.9V18z"/>
		<rect x="6" y="20.7" class="st1" width="5.1" height="5.1"/>
		<path class="st0" d="M10.1,24.9H6.8v-3.3h3.3V24.9z M11.9,19.8H5v6.9h6.9V19.8z"/>
	</g>
	<g id="BubbleUL">
		<rect x="0.9" y="2.5" class="st0" width="8.5" height="8.5"/>
		<path class="st1" d="M8.5,10.1H1.8V3.4h6.7V10.1z M10.3,1.6H8.5H1.8H0v1.8v6.7v1.8h1.8h6.7h1.8v-1.8V3.4V1.6z"/>
		<rect x="2.6" y="4.3" class="st1" width="5" height="5"/>
		<path class="st0" d="M6.7,8.3H3.5V5.1h3.2V8.3z M8.5,3.4H1.8v6.7h6.7V3.4z"/>
	</g>
</g>
</svg>
