<?xml version="1.0" encoding="utf-8"?>
<!-- Generator: Adobe Illustrator 27.0.0, SVG Export Plug-In . SVG Version: 6.00 Build 0)  -->
<svg version="1.1" id="Layer_1" xmlns="http://www.w3.org/2000/svg" xmlns:xlink="http://www.w3.org/1999/xlink" x="0px" y="0px"
	 viewBox="0 0 44.8 44.9" style="enable-background:new 0 0 44.8 44.9;" xml:space="preserve">
<style type="text/css">
	.st0{fill:#43FF94;}
	.st1{fill:#231F20;}
</style>
<g id="phone">
	<g id="Phone">
		<polygon class="st0" points="28.1,43.7 1.2,16.8 12.2,5.8 21.1,14.7 17.7,18.1 26.8,27.1 30.1,23.8 39,32.7 		"/>
		<path class="st0" d="M12.2,7.1l7.7,7.7l-3.3,3.3l10.3,10.3l3.3-3.3l7.7,7.7l-9.8,9.8L2.4,16.8L12.2,7.1z M12.2,4.6L11,5.8
			l-9.8,9.8L0,16.8L1.2,18l25.7,25.7l1.2,1.2l1.2-1.2l9.8-9.8l1.2-1.2l-1.2-1.2l-7.7-7.7l-1.2-1.2L29,23.8l-2.1,2.1l-7.8-7.8
			l2.1-2.1l1.2-1.2l-1.2-1.2l-7.8-7.8L12.2,4.6z"/>
		<polygon class="st0" points="28.1,41.3 3.6,16.8 12.2,8.3 18.6,14.7 15.3,18.1 26.8,29.6 30.1,26.2 36.6,32.7 		"/>
		<path class="st1" d="M12.2,9.5l5.3,5.3l-2.1,2.1l-1.2,1.2l1.2,1.2l10.3,10.3l1.2,1.2l1.2-1.2l2.1-2.1l5.3,5.3l-7.3,7.3L4.8,16.8
			L12.2,9.5z M12.2,7.1l-9.8,9.7l25.7,25.7l9.8-9.8L30.2,25l-3.3,3.3L16.6,18l3.3-3.3L12.2,7.1z"/>
	</g>
	<g id="Wifi2">
		<path class="st0" d="M26,9.6l9.3,9.3L34.2,20l-9.3-9.3L26,9.6z M26,7.2l-1.2,1.2l-1.1,1.1l-1.2,1.2l1.2,1.2l9.3,9.3l1.2,1.2
			l1.2-1.2l1.1-1.1l1.2-1.2l-1.2-1.2l-9.3-9.3L26,7.2z"/>
		<rect x="29.4" y="8.2" transform="matrix(0.7079 -0.7064 0.7064 0.7079 -1.6366 25.579)" class="st1" width="1.5" height="13.1"/>
	</g>
	<g id="Wifi1">
		<path class="st0" d="M24.5,16l4.3,4.3l-1.1,1.1l-4.3-4.3L24.5,16z M24.5,13.6l-1.2,1.2l-1.1,1.1L21,17.1l1.2,1.2l4.3,4.3l1.2,1.2
			l1.2-1.2l1.1-1.1l1.2-1.2L30,19.1l-4.3-4.3L24.5,13.6z"/>
		
			<rect x="25.4" y="15.7" transform="matrix(0.7071 -0.7071 0.7071 0.7071 -5.5912 23.9894)" class="st1" width="1.5" height="6.1"/>
	</g>
	<g id="wifi3">
		
			<rect x="32.4" y="-1.1" transform="matrix(0.7071 -0.7071 0.7071 0.7071 2.2723 27.2284)" class="st1" width="3.2" height="23.9"/>
		<path class="st0" d="M26.7,2.5l15.7,15.7l-1.1,1.1L25.6,3.6L26.7,2.5z M26.7,0l-1.2,1.2l-1.1,1.1l-1.2,1.2l1.2,1.2l15.7,15.7
			l1.2,1.2l1.2-1.2l1.1-1.1l1.2-1.2l-1.2-1.2L27.9,1.2L26.7,0z"/>
		
			<rect x="33.3" y="-0.2" transform="matrix(0.7071 -0.7071 0.7071 0.7071 2.2939 27.2788)" class="st1" width="1.5" height="22.2"/>
	</g>
</g>
</svg>
