<svg xmlns="http://www.w3.org/2000/svg" viewBox="0 0 127.25 106.14"><defs><style>.cls-1{fill:none;stroke:#a5a5a5;}.cls-1,.cls-2,.cls-3{stroke-miterlimit:10;}.cls-2{fill:#606060;}.cls-2,.cls-3{stroke:#000;}.cls-3{fill:#191919;}</style></defs><g id="Layer_2" data-name="Layer 2"><path class="cls-1" d="M1190.45,874.87V896.4l5.44,5.45,4.6-4.59V875.13s5.28.34,5.79-3.07-6-4.25-10.64-4.25-11.26.59-11.26,3.83S1190.45,874.87,1190.45,874.87Z" transform="translate(-1131.89 -867.31)"/><path class="cls-2" d="M1150.11,928.91s2-23.31,11.06-29.61,20.43-7.15,35.06-7.15,20.26,2.72,26.22,6.64,15.83,14.3,17.19,30.3S1206.11,958,1206.11,958L1152,951.38Z" transform="translate(-1131.89 -867.31)"/><path class="cls-2" d="M1141.94,936.15l8.17-7.83a157.83,157.83,0,0,0,44.59,6.38c25.19,0,43.92-2,44.94-6.21,0,0,6.64,5.93,8.47,7.66,6.63,6.3-10.68,15.49-11.2,16s-66.89-3.41-74.89-4.26S1141.94,936.15,1141.94,936.15Z" transform="translate(-1131.89 -867.31)"/><path class="cls-3" d="M1132.93,957.45s-3.41-21.11,7-21.45a234.91,234.91,0,0,0,58.9,7.49c33,0,47.32-4.77,51.74-8.17,2.85.89,11.92,9.49,6.29,26.79,0,0-30.47,11.17-63.66,10.83S1134.8,962.89,1132.93,957.45Z" transform="translate(-1131.89 -867.31)"/></g></svg>