<svg xmlns="http://www.w3.org/2000/svg" viewBox="0 0 410.43 199.43">
<defs>
<style>
.cls-1{fill:#b8cb67;}.cls-2{fill:#a4a43f;}
</style>
</defs>
<g id="Layer_2" data-name="Layer 2">
<path class="cls-1" d="M588.91,791.64c-87.31,21.19-87.82,57.19-87.57,95.23s34.72,72.77,109.79,78.9,33.44-120.26,33.44-120.26S623.64,787.55,588.91,791.64Z" transform="translate(-501.32 -791.43)"/>
<path class="cls-2" d="M587.13,791.89c-19.8,3.52-67.3,22.64-37.28,109.54,19.41,56.17,68.87,60.58,77.62,59.48,10.21-1.27,42.38-12,22.47-97C634.43,797.69,598.62,789.85,587.13,791.89Z" transform="translate(-501.32 -791.43)"/>
<path class="cls-1" d="M894.29,949.2s9.7,3.47,15.17-4.89,0-17.37-4.4-19c0,0-10.35-85.53-92.18-125.89,0,0-32.35-11.44-74,68.75s-16.58,99.1-16.58,99.1S841.83,1030.9,894.29,949.2Z" transform="translate(-501.32 -791.43)"/>
<path class="cls-2" d="M720.76,967.24s105-54.72,88.77-168.15c0,0-31.76-8.9-72.19,69S720.76,967.24,720.76,967.24Z" transform="translate(-501.32 -791.43)"/>
</g>
</svg>
