<svg xmlns="http://www.w3.org/2000/svg" viewBox="0 0 123.33 29.32">
  <defs>
    <style>
      .cls-1 {
        fill: #231f20;
      }

      .cls-2 {
        fill: #fff;
      }

      .cls-2, .cls-3 {
        stroke: #231f20;
        stroke-miterlimit: 10;
      }

      .cls-3 {
        fill: none;
      }

      .sadd{
        stroke-dasharray: 20.32px 20.32px;
        stroke-dashoffset: 20.32px;
        animation: sad 6s infinite;
      }
      .happ{
        stroke-dasharray: 20.32px 20.32px;
        stroke-dashoffset: 20.32px;
        animation: hap 6s infinite;
      }
      @keyframes sad {
        0% {
          stroke-dashoffset:0;
        }
        10% {
          stroke-dashoffset:0;
        }
        40% {
          stroke-dashoffset:0;
        }
        50% {stroke-dashoffset:20.32px;}
        90% {
          stroke-dashoffset:20.32px;
        }
        100% {
          stroke-dashoffset:0;
        }
      }
      @keyframes hap {
        0% {
          stroke-dashoffset:20.32px;
        }
        40% {
          stroke-dashoffset:20.32px;
        }
        50% {
          stroke-dashoffset:0;
        }
        90% {
          stroke-dashoffset:0;
        }
        100% {stroke-dashoffset:20.32px;}
      }
    

    </style>
  </defs>
  <g id="Layer_1" data-name="Layer 1">
    <g>
      <path class="cls-1" d="M261,244.59a2.74,2.74,0,0,1,.63,1,2.81,2.81,0,0,1,.15,1.07,2.77,2.77,0,0,1-.28,1,2.68,2.68,0,0,1-.64.85,2.87,2.87,0,0,1-2.16.67l-2.83-.29-.24,0s-.06,0-.06,0a.07.07,0,0,1,0-.06c.2-.13.32-.45.38-1l.65-6a1.35,1.35,0,0,0-.16-1s0,0,0-.06,0,0,.07,0l.22,0,1.65.18,1.09.1a2.17,2.17,0,0,1,1.13.44,2.25,2.25,0,0,1,.7.9,2.38,2.38,0,0,1,.16,1.13A2,2,0,0,1,261,244.59Zm-2.88-1,1.11.11a.59.59,0,0,0,.41-.12.5.5,0,0,0,.19-.37.46.46,0,0,0-.12-.39.53.53,0,0,0-.37-.2l-1.11-.11Zm.74,3.92a1.09,1.09,0,0,0,.82-.24,1,1,0,0,0,.4-.74,1,1,0,0,0-.05-.43,1,1,0,0,0-.54-.64,1.21,1.21,0,0,0-.42-.13l-1.11-.11-.22,2.17Z" transform="translate(-219.3 -235.84)"/>
      <path class="cls-1" d="M268.34,249.81a.06.06,0,0,1,0,.06s0,0-.07,0c-2.46-.14-3.69-.22-6.15-.42a.07.07,0,0,1-.07,0s0,0,0-.05c.19-.13.31-.46.35-1l0-.54.43-5.45q.09-1.09-.45-1.14c2.5.21,3.75.3,6.25.43,0,0,.06,0,.06,0a.06.06,0,0,1,0,.06,1.28,1.28,0,0,0-.32,1l0,.55,0,.24a.05.05,0,0,1,0,.06.07.07,0,0,1-.06,0c-.14-.19-.47-.29-1-.32l-2.75-.19,0,.54c0,.44,0,.66-.08,1.09l1.67.12a1.39,1.39,0,0,0,1-.2s0,0,.07,0a.06.06,0,0,1,0,.06v.23l0,.55-.06,1.09,0,.24s0,.05,0,.05,0,0-.06,0a1.33,1.33,0,0,0-1-.34l-1.68-.12,0,.54-.08,1.1,2.82.19a1.36,1.36,0,0,0,1-.22s0,0,.06,0a.05.05,0,0,1,0,.06l0,.24,0,.54A1.33,1.33,0,0,0,268.34,249.81Z" transform="translate(-219.3 -235.84)"/>
      <path class="cls-1" d="M273.44,247.38l1.68.05a2.54,2.54,0,0,1-.25,1.06,2.62,2.62,0,0,1-.63.85,2.77,2.77,0,0,1-.92.56,2.94,2.94,0,0,1-1.11.18l-.57,0a2.73,2.73,0,0,1-1.1-.26,2.78,2.78,0,0,1-.87-.63,2.65,2.65,0,0,1-.57-.9,2.56,2.56,0,0,1-.16-1.07c.06-1.09.09-1.64.14-2.73a2.63,2.63,0,0,1,.27-1.05,2.54,2.54,0,0,1,.64-.84,2.75,2.75,0,0,1,2-.72l.55,0a2.71,2.71,0,0,1,1.06.26,2.79,2.79,0,0,1,1.42,1.5,2.55,2.55,0,0,1,.19,1.07l-1.67,0h-.3c-.06,0-.08,0,0-.09a.58.58,0,0,0,0-.67l-.1-.12a.27.27,0,0,0-.12-.09.9.9,0,0,0-.51-.15l-.56,0a1.08,1.08,0,0,0-.79.29,1,1,0,0,0-.36.76l-.05,1.09,0,.54-.05,1.1a1,1,0,0,0,.29.79,1.09,1.09,0,0,0,.78.35l.57,0a.86.86,0,0,0,.28,0l.26-.09a.56.56,0,0,0,.23-.21.55.55,0,0,0,0-.66s0-.08,0-.08Z" transform="translate(-219.3 -235.84)"/>
      <path class="cls-1" d="M279,242.11a2.68,2.68,0,0,1,1.06.22,2.83,2.83,0,0,1,.88.59,2.91,2.91,0,0,1,.59.87,2.52,2.52,0,0,1,.22,1.06c0,1.1,0,1.64,0,2.74a2.55,2.55,0,0,1-.22,1.06,2.69,2.69,0,0,1-1.51,1.45,2.69,2.69,0,0,1-1.1.2h-.56a2.89,2.89,0,0,1-1.1-.23,2.76,2.76,0,0,1-.9-.59,3,3,0,0,1-.59-.89,2.53,2.53,0,0,1-.19-1.06c0-1.1,0-1.64.06-2.74a2.74,2.74,0,0,1,.24-1.06,3.07,3.07,0,0,1,.61-.85,2.79,2.79,0,0,1,.89-.58,2.91,2.91,0,0,1,1.07-.2Zm-.06,6.55a1.1,1.1,0,0,0,.8-.31,1,1,0,0,0,.33-.77v-2.73a1.09,1.09,0,0,0-1.1-1.1h-.54a1,1,0,0,0-.43.08,1,1,0,0,0-.6.57,1,1,0,0,0-.09.42l0,1.09v1.64a.92.92,0,0,0,.08.43,1,1,0,0,0,.23.35,1.13,1.13,0,0,0,.36.24,1.22,1.22,0,0,0,.43.08Z" transform="translate(-219.3 -235.84)"/>
      <path class="cls-1" d="M290.29,250c.06.06,0,.09,0,.1l-2.2.07a.06.06,0,0,1-.06,0s0,0,0-.06a1.31,1.31,0,0,0,.25-1c0-.85,0-1.27-.07-2.12l-.9,2.33a1,1,0,0,0-.08.83c0,.06,0,.09,0,.09l-1.69,0q-.11,0-.06-.09c.1-.17.06-.45-.11-.82-.42-.93-.62-1.39-1-2.31l0,1.82h0v.31c0,.52.11.85.31,1,0,0,0,0,0,.06a.06.06,0,0,1-.06,0l-2.2,0a.06.06,0,0,1-.06,0,.07.07,0,0,1,0-.07c.19-.15.28-.49.27-1,0-2.4,0-3.6,0-6a1.34,1.34,0,0,0-.27-1,.06.06,0,0,1,0-.06.05.05,0,0,1,.06,0h2.12a.06.06,0,0,1,.06,0,0,0,0,0,1,0,.06.73.73,0,0,0-.22.43.45.45,0,0,0,0,.32c.76,1.77,1.14,2.65,1.93,4.42.72-1.8,1.07-2.7,1.75-4.5a.54.54,0,0,0,0-.33.64.64,0,0,0-.23-.41s0,0,0-.06,0,0,.06,0l1.34,0,.79,0s.06,0,.06,0,0,0,0,.06a1.31,1.31,0,0,0-.24,1l0,.55,0,.54,0,.45.06,1.73c0,.88,0,1.32.09,2.19l0,.54A1.28,1.28,0,0,0,290.29,250Z" transform="translate(-219.3 -235.84)"/>
      <path class="cls-1" d="M293.05,249.83a.07.07,0,0,1,0,.06s0,0-.06,0l-2.19.1s-.06,0-.07,0a.06.06,0,0,1,0-.06,1.27,1.27,0,0,0,.23-1l-.26-6c0-.52-.12-.84-.3-1s-.06-.09,0-.1l1.32-.06.55,0,.23,0c.08,0,.1,0,.05.1s-.25.48-.22,1l0,.54.05,1,.08,1.74c.05.87.07,1.31.12,2.18l0,.55C292.74,249.36,292.85,249.69,293.05,249.83Z" transform="translate(-219.3 -235.84)"/>
      <path class="cls-1" d="M299.76,249.38a.09.09,0,0,1,0,.06.05.05,0,0,1-.06,0l-2.2.17s-.06,0-.07,0,0,0,0-.06a1,1,0,0,0,.21-.72,1.14,1.14,0,0,0,0-.38.84.84,0,0,0-.21-.33c-.89-1-1.33-1.57-2.2-2.62l.06,1,0,.54.1,1.64a1.28,1.28,0,0,0,.35,1,.09.09,0,0,1,0,.06.07.07,0,0,1-.06,0l-2.21.13a.06.06,0,0,1-.06,0,0,0,0,0,1,0-.06,1.29,1.29,0,0,0,.23-1l0-.56-.3-5.45c0-.52-.14-.84-.33-1t0-.06a.06.06,0,0,1,.06,0l2.12-.13a.06.06,0,0,1,.06,0s0,0,0,.06a.82.82,0,0,0-.19.47,1.1,1.1,0,0,0,0,.45,1.25,1.25,0,0,0,.21.39c.86,1,1.3,1.57,2.17,2.61l-.06-.87-.08-1.09c0-.44,0-.66-.08-1.09s-.15-.85-.34-1a.09.09,0,0,1,0-.06.09.09,0,0,1,.06,0l2.12-.16a.06.06,0,0,1,.06,0s0,0,0,.07c-.17.15-.24.49-.2,1,.2,2.4.29,3.6.48,6C299.43,248.92,299.55,249.24,299.76,249.38Z" transform="translate(-219.3 -235.84)"/>
      <path class="cls-1" d="M305.62,244.53l.33,0,.18,1.63a2.59,2.59,0,0,1-.11,1.08,2.64,2.64,0,0,1-.51.93,2.79,2.79,0,0,1-.84.68,2.84,2.84,0,0,1-1.08.33l-.57.05a2.8,2.8,0,0,1-1.12-.11,2.73,2.73,0,0,1-.95-.51,2.82,2.82,0,0,1-.68-.81,2.67,2.67,0,0,1-.31-1c-.09-1.09-.13-1.64-.22-2.73a2.41,2.41,0,0,1,.13-1.07,2.76,2.76,0,0,1,.51-.92,2.91,2.91,0,0,1,.82-.65,2.68,2.68,0,0,1,1.05-.32l.55-.05a2.63,2.63,0,0,1,1.08.11,2.76,2.76,0,0,1,.93.49,2.59,2.59,0,0,1,.68.79,2.67,2.67,0,0,1,.34,1l-1.66.18-.31,0c-.06,0-.08,0,0-.08a.5.5,0,0,0-.09-.64.45.45,0,0,0-.24-.19,1.08,1.08,0,0,0-.53-.08l-.56,0a1.11,1.11,0,0,0-.75.39,1.06,1.06,0,0,0-.25.8l.1,1.09.05.54.1,1.09a1,1,0,0,0,.39.73,1.08,1.08,0,0,0,.83.25l.56-.06a1.15,1.15,0,0,0,.52-.18,1.2,1.2,0,0,0,.4-.44,1.13,1.13,0,0,0,.1-.58l-.43,0-.46,0-1.12.11-.05-.55a1.37,1.37,0,0,0-.36-1,.05.05,0,0,1,0-.05s0,0,.07,0l.23,0C303.62,244.74,304.29,244.67,305.62,244.53Z" transform="translate(-219.3 -235.84)"/>
      <path class="cls-1" d="M251.27,260.09l1.78.22a2.43,2.43,0,0,1-.35,1,2.7,2.7,0,0,1-.75.79,3,3,0,0,1-1,.47,3.15,3.15,0,0,1-1.19.07l-.61-.08a2.9,2.9,0,0,1-1.13-.37,3.09,3.09,0,0,1-.88-.71,2.68,2.68,0,0,1-.52-.95,2.46,2.46,0,0,1-.08-1.08l.39-2.71a2.36,2.36,0,0,1,.37-1A2.79,2.79,0,0,1,248,255a2.84,2.84,0,0,1,1-.45,3,3,0,0,1,1.16-.07l.59.08a3.22,3.22,0,0,1,1.1.35,3.06,3.06,0,0,1,.85.7,3,3,0,0,1,.53.94,2.59,2.59,0,0,1,.11,1.08l-1.77-.21-.32,0q-.1,0,0-.09a.54.54,0,0,0,.06-.67l-.09-.13a.4.4,0,0,0-.12-.1,1.07,1.07,0,0,0-.53-.2l-.59-.08a1.19,1.19,0,0,0-.87.21,1,1,0,0,0-.44.72l-.15,1.08-.07.54-.15,1.09a1,1,0,0,0,.24.82,1.21,1.21,0,0,0,.8.42l.61.08a1.37,1.37,0,0,0,.57-.06.59.59,0,0,0,.27-.19.52.52,0,0,0,.1-.65c0-.06,0-.08.05-.08Z" transform="translate(-219.3 -235.84)"/>
      <path class="cls-1" d="M259.82,263.64a.09.09,0,0,1,0,.06s0,0-.08,0l-2.32-.21s-.06,0-.06,0,0-.05,0-.06a1.23,1.23,0,0,0,.38-1l.16-1.64,0-.54-2.37-.23-.05.53-.18,1.64a1.25,1.25,0,0,0,.19,1s0,0,0,.06,0,0-.07,0l-2.31-.25a.07.07,0,0,1-.07,0s0-.05,0-.06c.21-.13.34-.45.4-1l.06-.55.6-5.43c.06-.52,0-.86-.17-1,0,0,0-.05,0-.07s0,0,.08,0l2.23.24s.06,0,.06,0,0,0,0,.06c-.2.12-.33.44-.38,1l-.11,1.09-.12,1.08,2.35.24c.05-.44.07-.66.11-1.09l.1-1.09a1.25,1.25,0,0,0-.19-1,.06.06,0,0,1,0-.07.1.1,0,0,1,.07,0l2.24.2c.1,0,.11.05,0,.1s-.32.45-.36,1c-.21,2.4-.32,3.6-.52,6A1.24,1.24,0,0,0,259.82,263.64Z" transform="translate(-219.3 -235.84)"/>
      <path class="cls-1" d="M267,264.15s0,0,0,.06a.08.08,0,0,1-.07,0l-2.33-.14s-.06,0-.07,0,0,0,0-.06c.21-.13.33-.46.36-1l.07-1.09-2.38-.16-.08,1.09c0,.51,0,.85.23,1s.05.1-.05.09l-2.34-.18a.07.07,0,0,1-.06,0s0,0,0-.06c.22-.13.34-.45.39-1s.08-1,.13-1.62l.08-1a4.48,4.48,0,0,1,.19-1,4.35,4.35,0,0,1,.4-.92l.79-1.4c.15-.5.15-.84,0-1s0-.05,0-.07,0,0,.07,0c1.48.11,2.23.17,3.72.26.08,0,.1,0,0,.1s-.22.47-.15,1l.58,1.49a4.55,4.55,0,0,1,.27,1,4.69,4.69,0,0,1,.05,1l-.06,1-.09,1.63A1.22,1.22,0,0,0,267,264.15Zm-1.87-3.86a3.41,3.41,0,0,0-.21-1.18l-.75-2-1,1.85a2.78,2.78,0,0,0-.37,1.15Z" transform="translate(-219.3 -235.84)"/>
      <path class="cls-1" d="M273.7,264.44a0,0,0,0,1,0,.06.06.06,0,0,1-.06,0l-2.33-.08s-.06,0-.07,0,0,0,0-.06c.21-.14.32-.47.34-1l0-.55v-.28a1.57,1.57,0,0,0-.11-.64,1.5,1.5,0,0,0-.37-.53,1.57,1.57,0,0,0-.56-.37,1.74,1.74,0,0,0-.68-.16h-.29l0,.81-.05,1.09,0,.55a1.26,1.26,0,0,0,.24,1s0,0,0,.06,0,0-.07,0l-.25,0-.61,0-1.47-.07s-.06,0-.06,0,0,0,0-.06a1.25,1.25,0,0,0,.34-1c.13-2.4.2-3.6.33-6a1.31,1.31,0,0,0-.23-1s-.05-.05,0-.07a.07.07,0,0,1,.07,0l1.42.08,1.88.08a2.81,2.81,0,0,1,1,.22,2.72,2.72,0,0,1,.78.54,2.31,2.31,0,0,1,.51.76,2,2,0,0,1,.17.91,2.14,2.14,0,0,1-.26,1,2.41,2.41,0,0,1-.69.77,3.46,3.46,0,0,1,.65,1,2.75,2.75,0,0,1,.18,1.17v.82A1.25,1.25,0,0,0,273.7,264.44ZM271,259.26a.77.77,0,0,0,.53-.17.6.6,0,0,0,.24-.49.64.64,0,0,0-.2-.5.76.76,0,0,0-.52-.23l-1.3-.05h0v.08l-.06,1.29h0Z" transform="translate(-219.3 -235.84)"/>
      <path class="cls-1" d="M280.73,264.54s0,0,0,.07a.06.06,0,0,1-.06,0h-2.34a.08.08,0,0,1-.07,0,.11.11,0,0,1,0-.07c.2-.14.3-.47.31-1v-1.09l-2.39,0,0,1.09c0,.52.08.86.28,1s.06.1,0,.1l-2.34-.05s-.06,0-.07,0a.06.06,0,0,1,0-.06q.32-.21.33-1l0-1.63,0-1a5.25,5.25,0,0,1,.13-1,5.12,5.12,0,0,1,.35-.94l.71-1.44c.13-.51.11-.85-.05-1a.06.06,0,0,1,0-.07s0,0,.07,0c1.49,0,2.24,0,3.73.05.08,0,.1,0,.05.1s-.2.47-.1,1L280,259a5.31,5.31,0,0,1,.32.95,4.62,4.62,0,0,1,.1,1v2.61C280.42,264.07,280.52,264.4,280.73,264.54Zm-2.09-3.74a3.33,3.33,0,0,0-.27-1.17c-.35-.78-.52-1.16-.86-1.94l-.92,1.91a2.83,2.83,0,0,0-.31,1.17Z" transform="translate(-219.3 -235.84)"/>
      <path class="cls-1" d="M286,261.85l1.79,0a2.44,2.44,0,0,1-.21,1.07,2.87,2.87,0,0,1-.62.88,2.93,2.93,0,0,1-.95.61,3.2,3.2,0,0,1-1.16.24h-.61a3.29,3.29,0,0,1-1.18-.2,3.1,3.1,0,0,1-1-.59,2.48,2.48,0,0,1-.65-.86,2.45,2.45,0,0,1-.23-1.07c0-1.09,0-1.64,0-2.73a2.52,2.52,0,0,1,.23-1.06,2.63,2.63,0,0,1,.63-.88,3,3,0,0,1,.93-.59,3,3,0,0,1,1.13-.23h.59a3.11,3.11,0,0,1,1.14.2,3,3,0,0,1,.94.57,2.71,2.71,0,0,1,.65.85,2.4,2.4,0,0,1,.26,1.05l-1.77.05h-.32c-.07,0-.09,0,0-.08a.55.55,0,0,0,0-.67l-.11-.11a.3.3,0,0,0-.13-.09,1,1,0,0,0-.56-.12h-.59a1.18,1.18,0,0,0-.83.32,1,1,0,0,0-.33.78v2.74a1,1,0,0,0,.35.77,1.25,1.25,0,0,0,.86.31h.6l.29,0,.27-.1a.58.58,0,0,0,.24-.23.53.53,0,0,0,0-.66c0-.05,0-.08,0-.08Z" transform="translate(-219.3 -235.84)"/>
      <path class="cls-1" d="M294.44,256.09a.06.06,0,0,1,0,.07.71.71,0,0,0-.11.17,1,1,0,0,0-.08.27c0,.12,0,.27,0,.45s0,.41,0,.67V258s0,.06,0,.07-.05,0-.07,0a1.51,1.51,0,0,0-1.08-.21l-.89,0,.05,1c0,.7,0,1,.08,1.74s.05,1.26.09,2.1l0,.62c0,.52.14.84.34,1a.07.07,0,0,1,0,.06s0,0-.08,0c-.93.05-1.39.07-2.32.1,0,0-.06,0-.07,0s0-.05,0-.06a1.32,1.32,0,0,0,.25-1c-.09-2.18-.13-3.27-.22-5.46l-.88,0a1.52,1.52,0,0,0-1.07.3.06.06,0,0,1-.07,0s0,0,0-.06v-.78a1.27,1.27,0,0,0-.33-1,.08.08,0,0,1,0-.07s0,0,.07,0h.25l1.74-.06,1.47-.06,1.17,0,1.47-.08h.25S294.43,256.07,294.44,256.09Z" transform="translate(-219.3 -235.84)"/>
      <path class="cls-1" d="M302,263.66s0,0,0,0,0,0-.07,0c-2.61.22-3.91.32-6.53.47,0,0-.07,0-.07,0s0,0,0-.05a1.32,1.32,0,0,0,.23-1l0-.54c-.13-2.18-.2-3.27-.33-5.46,0-.72-.25-1.08-.64-1.05,2.66-.16,4-.25,6.65-.48,0,0,.06,0,.07,0s0,0,0,.07a1.25,1.25,0,0,0-.19,1l0,.55,0,.24a.06.06,0,0,1,0,.06s-.05,0-.07,0a1.51,1.51,0,0,0-1.09-.17l-2.93.21,0,.54.08,1.09,1.77-.13a1.53,1.53,0,0,0,1.06-.34,0,0,0,0,1,.06,0,.05.05,0,0,1,0,.06l0,.22,0,.55.09,1.09,0,.24a.07.07,0,0,1,0,.07s0,0-.06,0a1.55,1.55,0,0,0-1.11-.2l-1.78.13,0,.54.08,1.1c1.19-.08,1.79-.12,3-.22a1.53,1.53,0,0,0,1.07-.36,0,0,0,0,1,.06,0s0,0,0,.06l0,.23,0,.54C301.63,263.2,301.76,263.53,302,263.66Z" transform="translate(-219.3 -235.84)"/>
      <path class="cls-1" d="M308.72,263a.06.06,0,0,1,0,.06.07.07,0,0,1-.06,0l-2.32.25s-.06,0-.07,0,0,0,0-.06a1.24,1.24,0,0,0,.2-1l-.06-.55,0-.28a1.47,1.47,0,0,0-.2-.61,1.55,1.55,0,0,0-.44-.48,1.81,1.81,0,0,0-.61-.29,2,2,0,0,0-.7-.06l-.29,0,.08.81c0,.44.06.65.11,1.09l.05.55c.05.51.18.83.38,1a.05.05,0,0,1,0,.06s0,0-.07,0l-.25,0-.6.06-1.47.13s-.06,0-.07,0,0,0,0-.06a1.29,1.29,0,0,0,.2-1c-.21-2.39-.32-3.59-.53-6-.05-.51-.17-.83-.37-1,0,0-.05,0,0-.07s0,0,.06,0l1.41-.13,1.88-.18a2.47,2.47,0,0,1,1,.08,2.51,2.51,0,0,1,.85.42,2.35,2.35,0,0,1,.61.68,2,2,0,0,1,.3.88,2.21,2.21,0,0,1-.69,1.86,3.69,3.69,0,0,1,.79.93,3.05,3.05,0,0,1,.34,1.13l0,.28.06.54A1.27,1.27,0,0,0,308.72,263Zm-3.38-4.74a.78.78,0,0,0,.51-.25.63.63,0,0,0,.17-.52.66.66,0,0,0-.27-.47.76.76,0,0,0-.55-.15l-1.29.13h0v.09c0,.51.07.76.12,1.27v0Z" transform="translate(-219.3 -235.84)"/>
      <path class="cls-1" d="M313.51,257.72a2.73,2.73,0,0,1,.92.41,2.59,2.59,0,0,1,.67.69,2.31,2.31,0,0,1-.2,2.76,2.7,2.7,0,0,1-.78.63,2.9,2.9,0,0,1-1,.33l-.59.08-.61.08a3.17,3.17,0,0,1-1.07-.06,2.86,2.86,0,0,1-.92-.42,2.24,2.24,0,0,1-.66-.71,2.3,2.3,0,0,1-.32-.92l1.79-.21.24,0c.07,0,.1,0,.08.06a.35.35,0,0,0,0,.41.68.68,0,0,0,.28.22.87.87,0,0,0,.36,0l.6-.08.58-.08a.89.89,0,0,0,.61-.32.77.77,0,0,0-.15-1.14.88.88,0,0,0-.67-.15l-.59.07-.59.08a3.11,3.11,0,0,1-1.06-.06,2.63,2.63,0,0,1-.91-.43,2.45,2.45,0,0,1-.65-.71,2.14,2.14,0,0,1-.31-.93,2.28,2.28,0,0,1,.09-1,2.49,2.49,0,0,1,.47-.84,2.66,2.66,0,0,1,.77-.63,2.73,2.73,0,0,1,1-.31l.58-.08.58-.07a2.78,2.78,0,0,1,1,.05,2.84,2.84,0,0,1,.9.41,2.52,2.52,0,0,1,.68.7,2.26,2.26,0,0,1,.33.92l-1.76.24-.25,0q-.11,0-.06-.06a.42.42,0,0,0,0-.42.58.58,0,0,0-.27-.22.88.88,0,0,0-.36,0l-.58.07-.58.08a.88.88,0,0,0-.59.31.75.75,0,0,0-.18.6.72.72,0,0,0,.33.55.9.9,0,0,0,.64.16l.6-.08.58-.08A2.81,2.81,0,0,1,313.51,257.72Z" transform="translate(-219.3 -235.84)"/>
    </g>
    <path class="cls-2" d="M244.8,237.28s-2.55,18.75-4.1,22.17-8.3,5.19-8.3,5.19-6.75-1.77-8.3-5.19-4.1-22.17-4.1-22.17,4.32,4.48,12.4,4.48S244.8,237.28,244.8,237.28Z" transform="translate(-219.3 -235.84)"/>
    <path class="cls-2" d="M317.12,237.28s2.56,18.75,4.11,22.17,8.3,5.19,8.3,5.19,6.75-1.77,8.29-5.19,4.11-22.17,4.11-22.17-4.32,4.48-12.4,4.48S317.12,237.28,317.12,237.28Z" transform="translate(-219.3 -235.84)"/>
  </g>
  <g id="Layer_2" data-name="Layer 2">
    <path class="cls-3 sadd" d="M223,244.88c0,3.29,6,3.29,6,0C229,250.53,223,250.59,223,244.88Z" transform="translate(-219.3 -235.84)"/>
    <path class="cls-3 sadd" d="M234.81,244.88c0,3.29,6,3.29,6,0C240.83,250.53,234.81,250.59,234.81,244.88Z" transform="translate(-219.3 -235.84)"/>
    <path class="cls-3 sadd" d="M229.39,260.24c0-3.29,6-3.29,6,0C235.41,254.59,229.39,254.53,229.39,260.24Z" transform="translate(-219.3 -235.84)"/>
    <path class="cls-3 happ" d="M338.94,244.88c0,3.29-6,3.29-6,0C332.91,250.53,338.94,250.59,338.94,244.88Z" transform="translate(-219.3 -235.84)"/>
    <path class="cls-3 happ" d="M327.12,244.88c0,3.29-6,3.29-6,0C321.1,250.53,327.12,250.59,327.12,244.88Z" transform="translate(-219.3 -235.84)"/>
    <path class="cls-3 happ" d="M332.54,260.24c0-3.29-6-3.29-6,0C326.52,254.59,332.54,254.53,332.54,260.24Z" transform="translate(-219.3 -235.84)"/>
  </g>
  <g id="Layer_3" data-name="Layer 3">
    <path class="cls-3 happ" d="M229.39,255.79c0,3.3,6,3.3,6,0C235.41,261.44,229.39,261.51,229.39,255.79Z" transform="translate(-219.3 -235.84)"/>
    <path class="cls-3 happ" d="M223,249.32c0-3.29,6-3.29,6,0C229,243.67,223,243.61,223,249.32Z" transform="translate(-219.3 -235.84)"/>
    <path class="cls-3 happ" d="M234.81,249.32c0-3.29,6-3.29,6,0C240.83,243.67,234.81,243.61,234.81,249.32Z" transform="translate(-219.3 -235.84)"/>
    <path class="cls-3 sadd" d="M332.54,255.79c0,3.3-6,3.3-6,0C326.52,261.44,332.54,261.51,332.54,255.79Z" transform="translate(-219.3 -235.84)"/>
    <path class="cls-3 sadd" d="M338.94,249.32c0-3.29-6-3.29-6,0C332.91,243.67,338.94,243.61,338.94,249.32Z" transform="translate(-219.3 -235.84)"/>
    <path class="cls-3 sadd" d="M327.12,249.32c0-3.29-6-3.29-6,0C321.1,243.67,327.12,243.61,327.12,249.32Z" transform="translate(-219.3 -235.84)"/>
  </g>
</svg>
