<?xml version="1.0" encoding="utf-8"?>
<!-- Generator: Adobe Illustrator 24.1.3, SVG Export Plug-In . SVG Version: 6.00 Build 0)  -->
<svg version="1.1" id="Layer_1" xmlns="http://www.w3.org/2000/svg" xmlns:xlink="http://www.w3.org/1999/xlink" x="0px" y="0px"
	 viewBox="0 0 123.3 29.3" style="enable-background:new 0 0 123.3 29.3;" xml:space="preserve">
<style type="text/css">
	.st0{fill:#231F20;}
	.st1{fill:#FFFFFF;stroke:#231F20;stroke-miterlimit:10;}
	.st2{fill:none;stroke:#231F20;stroke-miterlimit:10;}
</style>
<g id="Layer_1_1_">
	<g>
		<path class="st0" d="M41.7,8.8c0.3,0.3,0.5,0.6,0.6,1c0.1,0.3,0.2,0.7,0.1,1.1c0,0.3-0.1,0.7-0.3,1c-0.2,0.3-0.4,0.6-0.6,0.9
			c-0.6,0.5-1.4,0.8-2.2,0.7l-2.8-0.3h-0.2h-0.1c0,0,0,0,0-0.1c0.2-0.1,0.3-0.4,0.4-1l0.6-6c0.1-0.3,0-0.7-0.2-1c0,0,0,0,0-0.1
			s0,0,0.1,0h0.2l1.6,0.2l1.1,0.1c0.4,0,0.8,0.2,1.1,0.4c0.3,0.2,0.5,0.5,0.7,0.9c0.1,0.4,0.2,0.7,0.2,1.1C42.1,8.1,42,8.4,41.7,8.8
			z M38.8,7.8l1.1,0.1c0.1,0,0.3,0,0.4-0.1c0.1-0.1,0.2-0.2,0.2-0.4c0-0.1,0-0.3-0.1-0.4c-0.1-0.1-0.2-0.2-0.4-0.2l-1.1-0.1
			L38.8,7.8z M39.6,11.7c0.3,0,0.6-0.1,0.8-0.2c0.2-0.2,0.4-0.4,0.4-0.7c0-0.1,0-0.3,0-0.4c-0.1-0.3-0.3-0.5-0.5-0.6
			c-0.1-0.1-0.3-0.1-0.4-0.1l-1.1-0.1l-0.2,2.2L39.6,11.7z"/>
		<path class="st0" d="M49,14C49.1,14,49.1,14,49,14C49,14,49,14,49,14c-2.5-0.1-3.8-0.2-6.2-0.4c0,0,0,0-0.1,0c0,0,0,0,0-0.1
			c0.2-0.1,0.3-0.5,0.4-1V12l0.4-5.4c0.1-0.7-0.1-1.1-0.5-1.1c2.5,0.2,3.8,0.3,6.3,0.4h0.1c0,0,0,0,0,0.1c-0.2,0.3-0.4,0.6-0.3,1
			v0.6v0.2c0,0,0,0,0,0.1c0,0,0,0-0.1,0c-0.1-0.2-0.5-0.3-1-0.3l-2.8-0.2v0.5c0,0.4,0,0.7-0.1,1.1L46.8,9c0.3,0.1,0.7,0,1-0.2
			c0,0,0,0,0.1,0c0,0,0,0,0,0.1v0.2v0.6l-0.1,1.1V11V11c0,0,0,0-0.1,0c-0.3-0.2-0.6-0.4-1-0.3l-1.7-0.1v0.5L45,12.2l2.8,0.2
			c0.3,0.1,0.7,0,1-0.2c0,0,0,0,0.1,0c0,0,0,0,0,0.1v0.2V13C48.8,13.3,48.9,13.7,49,14z"/>
		<path class="st0" d="M54.1,11.5l1.7,0.1c0,0.4-0.1,0.7-0.3,1.1c-0.2,0.3-0.4,0.6-0.6,0.9c-0.3,0.2-0.6,0.4-0.9,0.6
			c-0.4,0.1-0.7,0.2-1.1,0.2h-0.6c-0.4,0-0.8-0.1-1.1-0.3c-0.3-0.2-0.6-0.4-0.9-0.6c-0.2-0.3-0.4-0.6-0.6-0.9
			c-0.1-0.3-0.2-0.7-0.2-1.1c0.1-1.1,0.1-1.6,0.1-2.7c0-0.4,0.1-0.7,0.3-1.1c0.2-0.3,0.4-0.6,0.6-0.8C51.2,6.3,52,6,52.7,6h0.5
			c0.4,0,0.7,0.1,1.1,0.3c0.6,0.3,1.2,0.8,1.4,1.5c0.1,0.3,0.2,0.7,0.2,1.1h-1.7h-0.3c-0.1,0-0.1,0,0-0.1c0.1-0.2,0.1-0.5,0-0.7
			L53.8,8c0,0-0.1-0.1-0.1-0.1c-0.2-0.1-0.3-0.2-0.5-0.1h-0.6c-0.3,0-0.6,0.1-0.8,0.3c-0.2,0.2-0.4,0.5-0.4,0.8l0,1.1v0.5l0,1.1
			c0,0.3,0.1,0.6,0.3,0.8c0.2,0.2,0.5,0.3,0.8,0.4H53c0.1,0,0.2,0,0.3,0l0.3-0.1c0.1,0,0.2-0.1,0.2-0.2c0.1-0.2,0.1-0.5,0-0.7v-0.1
			L54.1,11.5z"/>
		<path class="st0" d="M59.7,6.3c0.4,0,0.7,0.1,1.1,0.2c0.3,0.1,0.6,0.3,0.9,0.6c0.2,0.3,0.4,0.5,0.6,0.9c0.1,0.3,0.2,0.7,0.2,1.1
			c0,1.1,0,1.6,0,2.7c0,0.4-0.1,0.7-0.2,1.1c-0.3,0.7-0.8,1.2-1.5,1.4c-0.3,0.1-0.7,0.2-1.1,0.2h-0.6c-0.4,0-0.8-0.1-1.1-0.2
			c-0.3-0.1-0.6-0.3-0.9-0.6c-0.2-0.3-0.4-0.6-0.6-0.9c-0.1-0.3-0.2-0.7-0.2-1.1c0-1.1,0-1.6,0.1-2.7c0-0.4,0.1-0.7,0.2-1.1
			c0.2-0.3,0.4-0.6,0.6-0.9c0.3-0.2,0.6-0.4,0.9-0.6c0.3-0.1,0.7-0.2,1.1-0.2L59.7,6.3z M59.6,12.8c0.3,0,0.6-0.1,0.8-0.3
			c0.2-0.2,0.3-0.5,0.3-0.8V9c0-0.6-0.5-1.1-1.1-1.1c0,0,0,0,0,0h-0.5c-0.1,0-0.3,0-0.4,0.1c-0.3,0.1-0.5,0.3-0.6,0.6
			C58,8.7,58,8.8,58,9v1.1v1.6c0,0.1,0,0.3,0.1,0.4c0.1,0.1,0.1,0.3,0.2,0.4c0.1,0.1,0.2,0.2,0.4,0.2c0.1,0.1,0.3,0.1,0.4,0.1
			L59.6,12.8z"/>
		<path class="st0" d="M71,14.2c0.1,0.1,0,0.1,0,0.1l-2.2,0.1c0,0,0,0-0.1,0c0,0,0,0,0-0.1c0.2-0.3,0.3-0.6,0.3-1
			c0-0.9,0-1.3-0.1-2.1L68,13.5c-0.1,0.3-0.2,0.6-0.1,0.8c0,0.1,0,0.1,0,0.1h-1.7c-0.1,0-0.1,0-0.1-0.1c0.1-0.2,0.1-0.4-0.1-0.8
			c-0.4-0.9-0.6-1.4-1-2.3V13l0,0v0.3c0,0.5,0.1,0.9,0.3,1c0,0,0,0,0,0.1c0,0,0,0-0.1,0h-2.2c0,0,0,0-0.1,0c0,0,0,0,0-0.1
			c0.2-0.1,0.3-0.5,0.3-1c0-2.4,0-3.6,0-6c0-0.4,0-0.7-0.3-1c0,0,0,0,0-0.1c0,0,0,0,0.1,0h2.1c0,0,0,0,0.1,0 M65.3,6.3
			c-0.1,0.1-0.2,0.3-0.2,0.4c0,0.1,0,0.2,0,0.3c0.8,1.8,1.1,2.6,1.9,4.4c0.7-1.8,1.1-2.7,1.8-4.5c0-0.1,0-0.2,0-0.3
			c0-0.2-0.1-0.3-0.2-0.4c0,0,0,0,0-0.1s0,0,0.1,0h1.3h0.8h0.1c0,0,0,0,0,0.1c-0.2,0.3-0.3,0.6-0.2,1v0.6v0.5v0.4l0.1,1.7
			c0,0.9,0,1.3,0.1,2.2v0.5c0,0.3,0.1,0.7,0.3,0.9L65.3,6.3z"/>
		<path class="st0" d="M73.7,14C73.8,14,73.8,14,73.7,14C73.7,14.1,73.7,14.1,73.7,14l-2.3,0.2c0,0-0.1,0-0.1,0c0,0,0,0,0-0.1
			c0.2-0.3,0.3-0.6,0.2-1l-0.3-6c0-0.5-0.1-0.8-0.3-1S71,6,71.1,6l1.3-0.1H73h0.2c0.1,0,0.1,0,0,0.1S73,6.5,73,7v0.5l0,1l0.1,1.7
			c0,0.9,0.1,1.3,0.1,2.2V13C73.4,13.5,73.6,13.9,73.7,14z"/>
		<path class="st0" d="M80.5,13.5C80.5,13.6,80.5,13.6,80.5,13.5C80.4,13.6,80.4,13.6,80.5,13.5l-2.3,0.2c0,0-0.1,0-0.1,0s0,0,0-0.1
			c0.2-0.2,0.2-0.5,0.2-0.7c0-0.1,0-0.3,0-0.4c0-0.1-0.1-0.2-0.2-0.3c-0.9-1-1.3-1.6-2.2-2.6l0.1,1v0.5l0.1,1.6c0,0.4,0.1,0.7,0.4,1
			c0,0,0,0,0,0.1c0,0,0,0-0.1,0L74.2,14c0,0,0,0-0.1,0 M74.1,14c0.2-0.3,0.3-0.6,0.2-1v-0.6L74,7c0-0.5-0.1-0.8-0.3-1
			c-0.1-0.1-0.1-0.1,0-0.1c0,0,0,0,0.1,0l2.1-0.1c0,0,0,0,0.1,0c0,0,0,0,0,0.1c-0.1,0.1-0.2,0.3-0.2,0.5c0,0.1,0,0.3,0,0.4
			c0,0.1,0.1,0.3,0.2,0.4c0.9,1,1.3,1.6,2.2,2.6l-0.1-0.9L78,7.8c0-0.4,0-0.7-0.1-1.1s-0.1-0.9-0.3-1c0,0,0,0,0-0.1c0,0,0,0,0.1,0
			l2.1-0.2c0,0,0,0,0.1,0c0,0,0,0,0,0.1c-0.2,0.1-0.2,0.5-0.2,1c0.2,2.4,0.3,3.6,0.5,6c0,0.5,0.1,0.8,0.4,1L74.1,14z"/>
		<path class="st0" d="M86.3,8.7h0.3l0.2,1.6c0,0.4,0,0.7-0.1,1.1c-0.1,0.3-0.3,0.7-0.5,0.9c-0.2,0.3-0.5,0.5-0.8,0.7
			c-0.3,0.2-0.7,0.3-1.1,0.3l-0.6,0.1c-0.4,0-0.8,0-1.1-0.1c-0.3-0.1-0.7-0.3-1-0.5c-0.3-0.2-0.5-0.5-0.7-0.8
			c-0.2-0.3-0.3-0.6-0.3-1c-0.1-1.1-0.1-1.6-0.2-2.7c0-0.4,0-0.7,0.1-1.1c0.1-0.3,0.3-0.6,0.5-0.9c0.2-0.3,0.5-0.5,0.8-0.6
			c0.3-0.2,0.7-0.3,1-0.3l0.5-0.1c0.4,0,0.7,0,1.1,0.1c0.3,0.1,0.7,0.3,0.9,0.5C85.8,6,86,6.3,86.2,6.6c0.2,0.3,0.3,0.6,0.3,1
			l-1.7,0.2h-0.3c-0.1,0-0.1,0,0-0.1c0.1-0.2,0.1-0.5-0.1-0.6c-0.1-0.1-0.1-0.2-0.2-0.2c-0.2-0.1-0.3-0.1-0.5-0.1h-0.6
			c-0.3,0-0.6,0.2-0.8,0.4c-0.2,0.2-0.3,0.5-0.3,0.8l0.1,1.1l0,0.5l0.1,1.1c0,0.3,0.2,0.6,0.4,0.7c0.2,0.2,0.5,0.3,0.8,0.3l0.6-0.1
			c0.2,0,0.4-0.1,0.5-0.2c0.2-0.1,0.3-0.3,0.4-0.4c0.1-0.2,0.1-0.4,0.1-0.6h-0.4h-0.5l-1.1,0.1l0-0.6c0-0.4-0.1-0.7-0.4-1
			c0,0,0,0,0-0.1c0,0,0,0,0.1,0h0.2C84.3,8.9,85,8.8,86.3,8.7z"/>
		<path class="st0" d="M32,24.3l1.8,0.2c0,0.4-0.2,0.7-0.4,1c-0.2,0.3-0.4,0.6-0.8,0.8c-0.3,0.2-0.6,0.4-1,0.5
			c-0.4,0.1-0.8,0.1-1.2,0.1l-0.6-0.1c-0.4,0-0.8-0.2-1.1-0.4c-0.3-0.2-0.6-0.4-0.9-0.7c-0.2-0.3-0.4-0.6-0.5-1
			c-0.1-0.3-0.1-0.7-0.1-1.1l0.4-2.7c0-0.4,0.2-0.7,0.4-1c0.2-0.3,0.4-0.5,0.7-0.7c0.3-0.2,0.6-0.4,1-0.4c0.4-0.1,0.8-0.1,1.2-0.1
			l0.6,0.1c0.4,0,0.8,0.2,1.1,0.4c0.3,0.2,0.6,0.4,0.9,0.7c0.2,0.3,0.4,0.6,0.5,0.9c0.1,0.3,0.2,0.7,0.1,1.1l-1.8-0.2h-0.3
			c-0.1,0-0.1,0,0-0.1c0.2-0.2,0.2-0.5,0.1-0.7l-0.1-0.1c0,0-0.1-0.1-0.1-0.1c-0.2-0.1-0.3-0.2-0.5-0.2l-0.6-0.1
			c-0.3,0-0.6,0-0.9,0.2c-0.2,0.2-0.4,0.4-0.4,0.7l-0.1,1.1l-0.1,0.5L29,23.9c0,0.3,0,0.6,0.2,0.8c0.2,0.2,0.5,0.4,0.8,0.4l0.6,0.1
			c0.2,0,0.4,0,0.6-0.1c0.1,0,0.2-0.1,0.3-0.2c0.2-0.2,0.2-0.4,0.1-0.6c0-0.1,0-0.1,0.1-0.1L32,24.3z"/>
		<path class="st0" d="M40.5,27.8C40.5,27.8,40.5,27.8,40.5,27.8C40.5,27.9,40.5,27.9,40.5,27.8l-2.4-0.1h-0.1c0,0,0,0,0-0.1
			c0.3-0.3,0.4-0.6,0.4-1l0.2-1.6v-0.5l-2.4-0.2l-0.1,0.5L36,26.4c-0.1,0.3,0,0.7,0.2,1c0,0,0,0,0,0.1s0,0-0.1,0l-2.3-0.3
			c0,0,0,0-0.1,0c0,0,0,0,0-0.1c0.2-0.1,0.3-0.5,0.4-1l0.1-0.5l0.6-5.4c0.1-0.5,0-0.9-0.2-1c0,0,0-0.1,0-0.1s0,0,0.1,0l2.2,0.2H37
			c0,0,0,0,0,0.1c-0.2,0.1-0.3,0.4-0.4,1l-0.1,1.1l-0.1,1.1l2.3,0.2c0-0.4,0.1-0.7,0.1-1.1l0.1-1.1c0.1-0.3,0-0.7-0.2-1
			c0,0,0,0,0-0.1c0,0,0,0,0.1,0l2.2,0.2c0.1,0,0.1,0.1,0,0.1s-0.3,0.4-0.4,1c-0.2,2.4-0.3,3.6-0.5,6C40.1,27.2,40.3,27.5,40.5,27.8z
			"/>
		<path class="st0" d="M47.7,28.3C47.7,28.3,47.7,28.3,47.7,28.3C47.7,28.4,47.7,28.4,47.7,28.3l-2.4-0.1c0,0-0.1,0-0.1,0s0,0,0-0.1
			c0.2-0.1,0.3-0.5,0.4-1l0.1-1.1l-2.4-0.2L43.2,27c0,0.5,0,0.9,0.2,1s0,0.1,0,0.1L41,27.9c0,0,0,0-0.1,0c0,0,0,0,0-0.1
			c0.2-0.1,0.3-0.5,0.4-1s0.1-1,0.1-1.6l0.1-1c0-0.3,0.1-0.7,0.2-1c0.1-0.3,0.2-0.6,0.4-0.9l0.8-1.4c0.1-0.5,0.1-0.8,0-1
			s0-0.1,0-0.1s0,0,0.1,0c1.5,0.1,2.2,0.2,3.7,0.3c0.1,0,0.1,0,0,0.1c-0.1,0.1-0.2,0.5-0.1,1l0.6,1.5c0.1,0.3,0.2,0.7,0.3,1
			c0.1,0.3,0.1,0.7,0,1l-0.1,1l-0.1,1.6C47.3,27.7,47.4,28.1,47.7,28.3z M45.8,24.5c0-0.4-0.1-0.8-0.2-1.2l-0.8-2l-1,1.9
			c-0.2,0.4-0.3,0.7-0.4,1.1L45.8,24.5z"/>
		<path class="st0" d="M54.4,28.7C54.4,28.7,54.4,28.7,54.4,28.7L52,28.6c0,0-0.1,0-0.1,0s0,0,0-0.1c0.2-0.1,0.3-0.5,0.3-1V27v-0.3
			c0-0.2,0-0.4-0.1-0.6c-0.1-0.2-0.2-0.4-0.4-0.5c-0.2-0.2-0.3-0.3-0.6-0.4C51,25.1,50.8,25,50.6,25h-0.3v0.8l0,1.1v0.5
			c-0.1,0.4,0,0.7,0.2,1c0,0,0,0,0,0.1s0,0-0.1,0h-0.3h-0.6l-1.5-0.1H48c0,0,0,0,0-0.1c0.3-0.3,0.4-0.6,0.3-1c0.1-2.4,0.2-3.6,0.3-6
			c0.1-0.4,0-0.7-0.2-1c0,0,0,0,0-0.1c0,0,0,0,0.1,0l1.4,0.1l1.9,0.1c0.3,0,0.7,0.1,1,0.2c0.3,0.1,0.6,0.3,0.8,0.5
			c0.2,0.2,0.4,0.5,0.5,0.8c0.1,0.3,0.2,0.6,0.2,0.9c0,0.3-0.1,0.7-0.3,1c-0.2,0.3-0.4,0.6-0.7,0.8c0.3,0.3,0.5,0.6,0.6,1
			c0.1,0.4,0.2,0.8,0.2,1.2v0.8C54.1,28,54.2,28.3,54.4,28.7L54.4,28.7z M51.7,23.4c0.2,0,0.4,0,0.5-0.2c0.2-0.1,0.2-0.3,0.2-0.5
			c0-0.2-0.1-0.4-0.2-0.5c-0.1-0.1-0.3-0.2-0.5-0.2l-1.3,0l0,0v0.1l-0.1,1.3l0,0L51.7,23.4z"/>
		<path class="st0" d="M61.4,28.7C61.4,28.7,61.4,28.7,61.4,28.7C61.4,28.8,61.4,28.8,61.4,28.7L59,28.8c0,0,0,0-0.1,0
			c0,0,0,0,0-0.1c0.2-0.1,0.3-0.5,0.3-1v-1.1h-2.4v1.1c0,0.5,0.1,0.9,0.3,1s0.1,0.1,0,0.1l-2.3,0c0,0-0.1,0-0.1,0c0,0,0,0,0-0.1
			c0.2-0.1,0.3-0.5,0.3-1v-1.6v-1c0-0.3,0.1-0.7,0.1-1c0.1-0.3,0.2-0.6,0.4-0.9l0.7-1.4c0.1-0.5,0.1-0.9,0-1c0,0,0,0,0-0.1
			c0,0,0,0,0.1,0c1.5,0,2.2,0,3.7,0c0.1,0,0.1,0,0,0.1s-0.2,0.5-0.1,1l0.7,1.4c0.1,0.3,0.2,0.6,0.3,1c0.1,0.3,0.1,0.7,0.1,1v2.6
			C61.1,28.2,61.2,28.6,61.4,28.7z M59.3,25c0-0.4-0.1-0.8-0.3-1.2c-0.4-0.8-0.5-1.2-0.9-1.9l-0.9,1.9c-0.2,0.4-0.3,0.8-0.3,1.2
			L59.3,25z"/>
		<path class="st0" d="M66.7,26h1.8c0,0.4-0.1,0.7-0.2,1.1c-0.1,0.3-0.4,0.6-0.6,0.9c-0.3,0.3-0.6,0.5-1,0.6
			c-0.4,0.2-0.8,0.2-1.2,0.2h-0.6c-0.4,0-0.8-0.1-1.2-0.2c-0.4-0.1-0.7-0.3-1-0.6c-0.3-0.2-0.5-0.5-0.6-0.9
			c-0.2-0.3-0.2-0.7-0.2-1.1c0-1.1,0-1.6,0-2.7c0-0.4,0.1-0.7,0.2-1.1c0.1-0.3,0.4-0.6,0.6-0.9c0.3-0.3,0.6-0.5,0.9-0.6
			c0.4-0.1,0.7-0.2,1.1-0.2h0.6c0.4,0,0.8,0.1,1.1,0.2c0.3,0.1,0.7,0.3,0.9,0.6c0.3,0.2,0.5,0.5,0.6,0.9c0.2,0.3,0.3,0.7,0.3,1
			l-1.8,0h-0.3c-0.1,0-0.1,0,0-0.1c0.2-0.2,0.2-0.5,0-0.7l-0.1-0.1c0,0-0.1-0.1-0.1-0.1c-0.2-0.1-0.4-0.1-0.6-0.1h-0.6
			c-0.3,0-0.6,0.1-0.8,0.3c-0.2,0.2-0.3,0.5-0.3,0.8v2.7c0,0.3,0.1,0.6,0.4,0.8c0.2,0.2,0.5,0.3,0.9,0.3h0.6h0.3l0.3-0.1
			c0.1-0.1,0.2-0.1,0.2-0.2c0.2-0.2,0.2-0.5,0-0.7c0,0,0-0.1,0-0.1L66.7,26z"/>
		<path class="st0" d="M75.1,20.3C75.2,20.3,75.2,20.3,75.1,20.3c0,0.1-0.1,0.2-0.1,0.2c0,0.1-0.1,0.2-0.1,0.3c0,0.1,0,0.3,0,0.5
			s0,0.4,0,0.7v0.3c0,0,0,0.1,0,0.1s0,0-0.1,0C74.6,22,74.2,22,73.8,22h-0.9l0,1c0,0.7,0,1,0.1,1.7s0,1.3,0.1,2.1v0.6
			c0,0.5,0.1,0.8,0.3,1c0,0,0,0,0,0.1c0,0,0,0-0.1,0c-0.9,0-1.4,0.1-2.3,0.1c0,0-0.1,0-0.1,0s0,0,0-0.1c0.2-0.3,0.3-0.6,0.3-1
			c-0.1-2.2-0.1-3.3-0.2-5.5h-0.9c-0.4,0-0.8,0.1-1.1,0.3c0,0,0,0-0.1,0c0,0,0,0,0-0.1v-0.8c0-0.4-0.1-0.7-0.3-1c0,0,0,0,0-0.1
			c0,0,0,0,0.1,0H69l1.7-0.1l1.5-0.1h1.2l1.5-0.1L75.1,20.3C75.1,20.3,75.1,20.2,75.1,20.3z"/>
		<path class="st0" d="M82.7,27.8L82.7,27.8C82.7,27.8,82.7,27.8,82.7,27.8c-2.7,0.2-4,0.3-6.6,0.5H76c0,0,0,0,0,0
			c0.2-0.3,0.3-0.6,0.2-1v-0.5c-0.1-2.2-0.2-3.3-0.3-5.5c0-0.7-0.3-1.1-0.6-1c2.7-0.2,4-0.3,6.6-0.5c0,0,0.1,0,0.1,0s0,0,0,0.1
			c-0.2,0.3-0.3,0.7-0.2,1v0.5v0.2c0,0,0,0,0,0.1c0,0,0,0-0.1,0c-0.3-0.2-0.7-0.3-1.1-0.2l-2.9,0.2v0.5l0.1,1.1l1.8-0.1
			c0.4,0,0.8-0.1,1.1-0.3 M80.7,22.8C80.7,22.8,80.7,22.9,80.7,22.8v0.3v0.5l0.1,1.1V25c0,0,0,0,0,0.1c0,0,0,0-0.1,0
			c-0.3-0.2-0.7-0.3-1.1-0.2L77.8,25v0.5l0.1,1.1c1.2-0.1,1.8-0.1,3-0.2c0.4,0,0.8-0.1,1.1-0.4 M82,26.1C82,26.1,82,26.1,82,26.1
			v0.3v0.5c0.3,0.5,0.4,0.8,0.7,0.9L82,26.1z"/>
		<path class="st0" d="M89.4,27.2C89.4,27.2,89.4,27.2,89.4,27.2C89.4,27.2,89.4,27.2,89.4,27.2L87,27.5c0,0-0.1,0-0.1,0s0,0,0-0.1
			c0.2-0.3,0.3-0.7,0.2-1l-0.1-0.5v-0.3c0-0.2-0.1-0.4-0.2-0.6c-0.1-0.2-0.3-0.4-0.4-0.5c-0.2-0.1-0.4-0.2-0.6-0.3
			c-0.2-0.1-0.5-0.1-0.7-0.1h-0.3l0.1,0.8c0,0.4,0.1,0.6,0.1,1.1l0,0.5c0,0.5,0.2,0.8,0.4,1c0,0,0,0,0,0.1c0,0,0,0-0.1,0h-0.3
			l-0.6,0.1l-1.5,0.1c0,0-0.1,0-0.1,0s0,0,0-0.1c0.2-0.3,0.3-0.7,0.2-1c-0.2-2.4-0.3-3.6-0.5-6c0-0.5-0.2-0.8-0.4-1c0,0,0,0,0-0.1
			s0,0,0.1,0l1.4-0.1l1.9-0.2c0.3,0,0.7,0,1,0.1c0.3,0.1,0.6,0.2,0.9,0.4c0.2,0.2,0.5,0.4,0.6,0.7c0.2,0.3,0.3,0.6,0.3,0.9
			c0.1,0.7-0.2,1.4-0.7,1.9c0.3,0.3,0.6,0.6,0.8,0.9c0.2,0.4,0.3,0.7,0.3,1.1v0.3l0.1,0.5C89,26.6,89.1,26.9,89.4,27.2z M86,22.4
			c0.2,0,0.4-0.1,0.5-0.3c0.1-0.1,0.2-0.3,0.2-0.5c0-0.2-0.1-0.4-0.3-0.5c-0.2-0.1-0.4-0.2-0.5-0.1l-1.3,0.1l0,0v0.1
			c0,0.5,0.1,0.8,0.1,1.3l0,0L86,22.4z"/>
		<path class="st0" d="M94.2,21.9c0.3,0.1,0.6,0.2,0.9,0.4c0.3,0.2,0.5,0.4,0.7,0.7c0.6,0.9,0.5,2-0.2,2.8c-0.2,0.3-0.5,0.5-0.8,0.6
			c-0.3,0.2-0.6,0.3-1,0.3l-0.6,0.1l-0.6,0.1c-0.4,0-0.7,0-1.1-0.1c-0.3-0.1-0.6-0.2-0.9-0.4c-0.3-0.2-0.5-0.4-0.7-0.7
			c-0.2-0.3-0.3-0.6-0.3-0.9l1.8-0.2h0.2c0.1,0,0.1,0,0.1,0.1c-0.1,0.1-0.1,0.3,0,0.4c0.1,0.1,0.2,0.2,0.3,0.2c0.1,0,0.2,0,0.4,0
			l0.6-0.1l0.6-0.1c0.2,0,0.5-0.1,0.6-0.3c0.3-0.3,0.2-0.8-0.1-1.1c0,0,0,0-0.1-0.1c-0.2-0.1-0.4-0.2-0.7-0.1l-0.6,0.1l-0.6,0.1
			c-0.4,0-0.7,0-1.1-0.1c-0.3-0.1-0.6-0.2-0.9-0.4c-0.3-0.2-0.5-0.4-0.6-0.7c-0.2-0.3-0.3-0.6-0.3-0.9c0-0.3,0-0.7,0.1-1
			c0.1-0.3,0.3-0.6,0.5-0.8c0.2-0.3,0.5-0.5,0.8-0.6c0.3-0.2,0.6-0.3,1-0.3l0.6-0.1l0.6-0.1c0.3,0,0.7,0,1,0.1
			c0.3,0.1,0.6,0.2,0.9,0.4c0.3,0.2,0.5,0.4,0.7,0.7c0.2,0.3,0.3,0.6,0.3,0.9l-1.8,0.2h-0.3c-0.1,0-0.1,0-0.1-0.1
			c0.1-0.1,0.1-0.3,0-0.4c-0.1-0.1-0.2-0.2-0.3-0.2c-0.1,0-0.2,0-0.4,0l-0.6,0.1l-0.6,0.1c-0.2,0-0.4,0.1-0.6,0.3
			C91.1,20.8,91,21,91,21.2c0,0.2,0.1,0.4,0.3,0.5c0.2,0.1,0.4,0.2,0.6,0.2l0.6-0.1l0.6-0.1C93.5,21.7,93.9,21.8,94.2,21.9z"/>
	</g>
	<path class="st1" d="M25.5,1.4c0,0-2.6,18.8-4.1,22.2s-8.3,5.2-8.3,5.2S6.3,27,4.8,23.6S0.7,1.4,0.7,1.4S5,5.9,13.1,5.9
		S25.5,1.4,25.5,1.4z"/>
	<path class="st1" d="M97.8,1.4c0,0,2.6,18.8,4.1,22.2s8.3,5.2,8.3,5.2s6.8-1.8,8.3-5.2s4.1-22.2,4.1-22.2s-4.3,4.5-12.4,4.5
		S97.8,1.4,97.8,1.4z"/>
</g>
<g id="Layer_2_1_">
	<path class="st2" d="M119.6,9c0,3.3-6,3.3-6,0C113.6,14.7,119.6,14.8,119.6,9z"/>
	<path class="st2" d="M107.8,9c0,3.3-6,3.3-6,0C101.8,14.7,107.8,14.8,107.8,9z"/>
	<path class="st2" d="M113.2,24.4c0-3.3-6-3.3-6,0C107.2,18.8,113.2,18.7,113.2,24.4z"/>
</g>
<g id="Layer_3">
	<path class="st2" d="M10.1,20c0,3.3,6,3.3,6,0C16.1,25.6,10.1,25.7,10.1,20z"/>
	<path class="st2" d="M3.7,13.5c0-3.3,6-3.3,6,0C9.7,7.8,3.7,7.8,3.7,13.5z"/>
	<path class="st2" d="M15.5,13.5c0-3.3,6-3.3,6,0C21.5,7.8,15.5,7.8,15.5,13.5z"/>
</g>
</svg>
